<svg width="1000" height="600" xmlns="http://www.w3.org/2000/svg"><path fill="#e8e5ff" d="M0 0h1000v600H0z"/><path d="M0 300h0c31.387-21.829 62.773-43.657 91-19 28.227 24.657 53.293 95.8 82 78 28.707-17.8 61.054-124.543 93-131 31.946-6.457 63.49 87.373 92 111 28.51 23.627 53.988-22.948 88-19 34.012 3.948 76.56 58.418 110 41s57.773-106.724 87-103c29.227 3.724 63.348 100.479 91 106 27.652 5.521 48.835-80.19 77-110 28.165-29.81 63.314-3.718 98 8s68.91 9.062 84 13c15.09 3.938 11.045 14.469 47 25" fill="none" stroke="#513eff" stroke-width="5" stroke-linecap="round"/></svg>